<mxfile host="app.diagrams.net" agent="Mozilla/5.0 (Windows NT 10.0; Win64; x64) AppleWebKit/537.36 (KHTML, like Gecko) Chrome/131.0.0.0 Safari/537.36 Edg/131.0.0.0" version="25.0.1">
  <diagram name="Page-1" id="Adq7_tthnY8rTL2_y85j">
    <mxGraphModel dx="1426" dy="747" grid="1" gridSize="10" guides="1" tooltips="1" connect="1" arrows="1" fold="1" page="1" pageScale="1" pageWidth="850" pageHeight="1100" math="0" shadow="0">
      <root>
        <mxCell id="0" />
        <mxCell id="1" parent="0" />
        <mxCell id="iEYp95RAgp4w1Y78rKoG-1" style="edgeStyle=orthogonalEdgeStyle;rounded=0;orthogonalLoop=1;jettySize=auto;html=1;" edge="1" parent="1" source="1tkC_r4o6AyQLB_ebu9L-1" target="1tkC_r4o6AyQLB_ebu9L-2">
          <mxGeometry relative="1" as="geometry" />
        </mxCell>
        <mxCell id="1tkC_r4o6AyQLB_ebu9L-1" value="User use the feature &quot;Bulk un-assign Users From User Groups at Import Data&quot; with 10000 users" style="rounded=0;whiteSpace=wrap;html=1;" parent="1" vertex="1">
          <mxGeometry x="295" y="100" width="250" height="100" as="geometry" />
        </mxCell>
        <mxCell id="iEYp95RAgp4w1Y78rKoG-2" style="edgeStyle=orthogonalEdgeStyle;rounded=0;orthogonalLoop=1;jettySize=auto;html=1;entryX=0.5;entryY=0;entryDx=0;entryDy=0;" edge="1" parent="1" source="1tkC_r4o6AyQLB_ebu9L-2" target="iEYp95RAgp4w1Y78rKoG-3">
          <mxGeometry relative="1" as="geometry">
            <mxPoint x="415" y="420" as="targetPoint" />
          </mxGeometry>
        </mxCell>
        <mxCell id="1tkC_r4o6AyQLB_ebu9L-2" value="The system processes csv file" style="rounded=0;whiteSpace=wrap;html=1;" parent="1" vertex="1">
          <mxGeometry x="320" y="280" width="200" height="80" as="geometry" />
        </mxCell>
        <mxCell id="iEYp95RAgp4w1Y78rKoG-3" value="Update data to &lt;b&gt;users&lt;/b&gt; table" style="whiteSpace=wrap;html=1;" vertex="1" parent="1">
          <mxGeometry x="320" y="440" width="200" height="60" as="geometry" />
        </mxCell>
        <mxCell id="iEYp95RAgp4w1Y78rKoG-4" value="" style="rounded=0;whiteSpace=wrap;html=1;" vertex="1" parent="1">
          <mxGeometry x="320" y="590" width="200" height="60" as="geometry" />
        </mxCell>
      </root>
    </mxGraphModel>
  </diagram>
</mxfile>
